<svg xmlns="http://www.w3.org/2000/svg" style="display: none;">

  <!-- Strzałka ">" -->
  <symbol id="icon-strzalka" viewBox="0 0 100 100">
    <polyline points="30,20 70,50 30,80"
              fill="none"
              stroke="black"
              stroke-width="10"
              stroke-linecap="round"
              stroke-linejoin="round"/>
  </symbol>

  <!-- Ptaszek / tick / checkmark -->
  <symbol id="icon-ptaszek" viewBox="0 0 100 100">
    <polyline points="20,50 40,70 80,30"
              fill="none"
              stroke="green"
              stroke-width="10"
              stroke-linecap="round"
              stroke-linejoin="round"/>
  </symbol>

  <!-- Fala -->
  <symbol id="vawe_background" viewBox="0 0 1440 320">
    <path fill="#c084fc88" fill-opacity="1"
      d="M0,64L48,90.7C96,117,192,171,288,181.3C384,192,480,160,576,133.3C672,107,768,85,864,80C960,75,1056,85,1152,106.7C1248,128,1344,160,1392,176L1440,192L1440,320L1392,320C1344,320,1248,320,1152,320C1056,320,960,320,864,320C768,320,672,320,576,320C480,320,384,320,288,320C192,320,96,320,48,320L0,320Z"/>
  </symbol>

</svg>